<?xml version="1.0" standalone="no"?>
<svg xmlns:xlink="http://www.w3.org/1999/xlink" id="wave" style="transform:rotate(0deg); transition: 0.3s" viewBox="0 0 1440 490" version="1.1" xmlns="http://www.w3.org/2000/svg"><defs><linearGradient id="sw-gradient-0" x1="0" x2="0" y1="1" y2="0"><stop stop-color="rgba(0, 0, 0, 1)" offset="0%"/><stop stop-color="rgba(44.618, 116.436, 7.272, 1)" offset="100%"/></linearGradient></defs><path style="transform:translate(0, 0px); opacity:1" fill="url(#sw-gradient-0)" d="M0,98L17.1,81.7C34.3,65,69,33,103,24.5C137.1,16,171,33,206,98C240,163,274,278,309,310.3C342.9,343,377,294,411,285.8C445.7,278,480,310,514,343C548.6,376,583,408,617,408.3C651.4,408,686,376,720,302.2C754.3,229,789,114,823,114.3C857.1,114,891,229,926,228.7C960,229,994,114,1029,122.5C1062.9,131,1097,261,1131,285.8C1165.7,310,1200,229,1234,187.8C1268.6,147,1303,147,1337,187.8C1371.4,229,1406,310,1440,285.8C1474.3,261,1509,131,1543,73.5C1577.1,16,1611,33,1646,73.5C1680,114,1714,180,1749,196C1782.9,212,1817,180,1851,187.8C1885.7,196,1920,245,1954,236.8C1988.6,229,2023,163,2057,122.5C2091.4,82,2126,65,2160,73.5C2194.3,82,2229,114,2263,155.2C2297.1,196,2331,245,2366,277.7C2400,310,2434,327,2451,334.8L2468.6,343L2468.6,490L2451.4,490C2434.3,490,2400,490,2366,490C2331.4,490,2297,490,2263,490C2228.6,490,2194,490,2160,490C2125.7,490,2091,490,2057,490C2022.9,490,1989,490,1954,490C1920,490,1886,490,1851,490C1817.1,490,1783,490,1749,490C1714.3,490,1680,490,1646,490C1611.4,490,1577,490,1543,490C1508.6,490,1474,490,1440,490C1405.7,490,1371,490,1337,490C1302.9,490,1269,490,1234,490C1200,490,1166,490,1131,490C1097.1,490,1063,490,1029,490C994.3,490,960,490,926,490C891.4,490,857,490,823,490C788.6,490,754,490,720,490C685.7,490,651,490,617,490C582.9,490,549,490,514,490C480,490,446,490,411,490C377.1,490,343,490,309,490C274.3,490,240,490,206,490C171.4,490,137,490,103,490C68.6,490,34,490,17,490L0,490Z"/></svg>