<?xml version="1.0" standalone="no"?>
<svg xmlns:xlink="http://www.w3.org/1999/xlink" id="wave" style="transform:rotate(0deg); transition: 0.3s" viewBox="0 0 1440 490" version="1.1" xmlns="http://www.w3.org/2000/svg"><defs><linearGradient id="sw-gradient-0" x1="0" x2="0" y1="1" y2="0"><stop stop-color="rgba(0, 0, 0, 1)" offset="0%"/><stop stop-color="rgba(136.927, 136.927, 136.927, 1)" offset="100%"/></linearGradient></defs><path style="transform:translate(0, 0px); opacity:1" fill="url(#sw-gradient-0)" d="M0,343L80,318.5C160,294,320,245,480,253.2C640,261,800,327,960,310.3C1120,294,1280,196,1440,138.8C1600,82,1760,65,1920,114.3C2080,163,2240,278,2400,285.8C2560,294,2720,196,2880,138.8C3040,82,3200,65,3360,98C3520,131,3680,212,3840,269.5C4000,327,4160,359,4320,367.5C4480,376,4640,359,4800,367.5C4960,376,5120,408,5280,367.5C5440,327,5600,212,5760,179.7C5920,147,6080,196,6240,179.7C6400,163,6560,82,6720,98C6880,114,7040,229,7200,302.2C7360,376,7520,408,7680,416.5C7840,425,8000,408,8160,367.5C8320,327,8480,261,8640,261.3C8800,261,8960,327,9120,318.5C9280,310,9440,229,9600,179.7C9760,131,9920,114,10080,89.8C10240,65,10400,33,10560,40.8C10720,49,10880,98,11040,171.5C11200,245,11360,343,11440,392L11520,441L11520,490L11440,490C11360,490,11200,490,11040,490C10880,490,10720,490,10560,490C10400,490,10240,490,10080,490C9920,490,9760,490,9600,490C9440,490,9280,490,9120,490C8960,490,8800,490,8640,490C8480,490,8320,490,8160,490C8000,490,7840,490,7680,490C7520,490,7360,490,7200,490C7040,490,6880,490,6720,490C6560,490,6400,490,6240,490C6080,490,5920,490,5760,490C5600,490,5440,490,5280,490C5120,490,4960,490,4800,490C4640,490,4480,490,4320,490C4160,490,4000,490,3840,490C3680,490,3520,490,3360,490C3200,490,3040,490,2880,490C2720,490,2560,490,2400,490C2240,490,2080,490,1920,490C1760,490,1600,490,1440,490C1280,490,1120,490,960,490C800,490,640,490,480,490C320,490,160,490,80,490L0,490Z"/><defs><linearGradient id="sw-gradient-1" x1="0" x2="0" y1="1" y2="0"><stop stop-color="rgba(0, 0, 0, 1)" offset="0%"/><stop stop-color="rgba(150.588, 150.588, 150.588, 1)" offset="100%"/></linearGradient></defs><path style="transform:translate(0, 50px); opacity:0.9" fill="url(#sw-gradient-1)" d="M0,294L80,245C160,196,320,98,480,81.7C640,65,800,131,960,204.2C1120,278,1280,359,1440,400.2C1600,441,1760,441,1920,367.5C2080,294,2240,147,2400,122.5C2560,98,2720,196,2880,261.3C3040,327,3200,359,3360,383.8C3520,408,3680,425,3840,367.5C4000,310,4160,180,4320,122.5C4480,65,4640,82,4800,114.3C4960,147,5120,196,5280,179.7C5440,163,5600,82,5760,40.8C5920,0,6080,0,6240,40.8C6400,82,6560,163,6720,171.5C6880,180,7040,114,7200,73.5C7360,33,7520,16,7680,81.7C7840,147,8000,294,8160,294C8320,294,8480,147,8640,106.2C8800,65,8960,131,9120,130.7C9280,131,9440,65,9600,49C9760,33,9920,65,10080,89.8C10240,114,10400,131,10560,114.3C10720,98,10880,49,11040,57.2C11200,65,11360,131,11440,163.3L11520,196L11520,490L11440,490C11360,490,11200,490,11040,490C10880,490,10720,490,10560,490C10400,490,10240,490,10080,490C9920,490,9760,490,9600,490C9440,490,9280,490,9120,490C8960,490,8800,490,8640,490C8480,490,8320,490,8160,490C8000,490,7840,490,7680,490C7520,490,7360,490,7200,490C7040,490,6880,490,6720,490C6560,490,6400,490,6240,490C6080,490,5920,490,5760,490C5600,490,5440,490,5280,490C5120,490,4960,490,4800,490C4640,490,4480,490,4320,490C4160,490,4000,490,3840,490C3680,490,3520,490,3360,490C3200,490,3040,490,2880,490C2720,490,2560,490,2400,490C2240,490,2080,490,1920,490C1760,490,1600,490,1440,490C1280,490,1120,490,960,490C800,490,640,490,480,490C320,490,160,490,80,490L0,490Z"/></svg>